{
    "asset" : {
        "generator" : "Khronos glTF Blender I/O v0.9.36",
        "version" : "2.0"
    },
    "scene" : 0,
    "scenes" : [
        {
            "name" : "Scene",
            "nodes" : [
                0,
                1
            ]
        }
    ],
    "nodes" : [
        {
            "mesh" : 0,
            "name" : "island",
            "scale" : [
                1.5102415084838867,
                1,
                1.5102415084838867
            ],
            "translation" : [
                0,
                -0.06821028143167496,
                0
            ]
        },
        {
            "mesh" : 1,
            "name" : "island_collider",
            "scale" : [
                1.5102415084838867,
                1,
                1.5102415084838867
            ],
            "translation" : [
                0,
                -0.06821028143167496,
                0
            ]
        }
    ],
    "materials" : [
        {
            "doubleSided" : true,
            "name" : "gold",
            "pbrMetallicRoughness" : {
                "baseColorFactor" : [
                    0.799102783203125,
                    0.5394795536994934,
                    0.23839758336544037,
                    1
                ],
                "metallicFactor" : 1,
                "roughnessFactor" : 0.05000000074505806
            }
        },
        {
            "doubleSided" : true,
            "name" : "CasinoCarpet",
            "pbrMetallicRoughness" : {
                "baseColorTexture" : {
                    "index" : 0,
                    "texCoord" : 0
                },
                "metallicFactor" : 0,
                "roughnessFactor" : 0.5
            }
        }
    ],
    "meshes" : [
        {
            "name" : "Circle.006",
            "primitives" : [
                {
                    "attributes" : {
                        "POSITION" : 0,
                        "NORMAL" : 1,
                        "TEXCOORD_0" : 2
                    },
                    "indices" : 3,
                    "material" : 0
                },
                {
                    "attributes" : {
                        "POSITION" : 4,
                        "NORMAL" : 5,
                        "TEXCOORD_0" : 6
                    },
                    "indices" : 7,
                    "material" : 1
                }
            ]
        },
        {
            "name" : "Circle.001",
            "primitives" : [
                {
                    "attributes" : {
                        "POSITION" : 8,
                        "NORMAL" : 9,
                        "TEXCOORD_0" : 10
                    },
                    "indices" : 11
                }
            ]
        }
    ],
    "textures" : [
        {
            "source" : 0
        }
    ],
    "images" : [
        {
            "mimeType" : "image/png",
            "name" : "CarpetArtDeco",
            "uri" : "CarpetArtDeco.png"
        }
    ],
    "accessors" : [
        {
            "bufferView" : 0,
            "componentType" : 5126,
            "count" : 64,
            "max" : [
                2.39569354057312,
                0.13772140443325043,
                2.395693778991699
            ],
            "min" : [
                -2.395692825317383,
                0.06829169392585754,
                -2.3956925868988037
            ],
            "type" : "VEC3"
        },
        {
            "bufferView" : 1,
            "componentType" : 5126,
            "count" : 64,
            "type" : "VEC3"
        },
        {
            "bufferView" : 2,
            "componentType" : 5126,
            "count" : 64,
            "type" : "VEC2"
        },
        {
            "bufferView" : 3,
            "componentType" : 5123,
            "count" : 192,
            "type" : "SCALAR"
        },
        {
            "bufferView" : 4,
            "componentType" : 5126,
            "count" : 96,
            "max" : [
                2.39569354057312,
                0.13772140443325043,
                2.395693778991699
            ],
            "min" : [
                -2.395692825317383,
                0.011581312865018845,
                -2.3956925868988037
            ],
            "type" : "VEC3"
        },
        {
            "bufferView" : 5,
            "componentType" : 5126,
            "count" : 96,
            "type" : "VEC3"
        },
        {
            "bufferView" : 6,
            "componentType" : 5126,
            "count" : 96,
            "type" : "VEC2"
        },
        {
            "bufferView" : 7,
            "componentType" : 5123,
            "count" : 282,
            "type" : "SCALAR"
        },
        {
            "bufferView" : 8,
            "componentType" : 5126,
            "count" : 160,
            "max" : [
                2.39569354057312,
                0.13772140443325043,
                2.395693778991699
            ],
            "min" : [
                -2.395692825317383,
                0.011581312865018845,
                -2.3956925868988037
            ],
            "type" : "VEC3"
        },
        {
            "bufferView" : 9,
            "componentType" : 5126,
            "count" : 160,
            "type" : "VEC3"
        },
        {
            "bufferView" : 10,
            "componentType" : 5126,
            "count" : 160,
            "type" : "VEC2"
        },
        {
            "bufferView" : 11,
            "componentType" : 5123,
            "count" : 474,
            "type" : "SCALAR"
        }
    ],
    "bufferViews" : [
        {
            "buffer" : 0,
            "byteLength" : 768,
            "byteOffset" : 0
        },
        {
            "buffer" : 0,
            "byteLength" : 768,
            "byteOffset" : 768
        },
        {
            "buffer" : 0,
            "byteLength" : 512,
            "byteOffset" : 1536
        },
        {
            "buffer" : 0,
            "byteLength" : 384,
            "byteOffset" : 2048
        },
        {
            "buffer" : 0,
            "byteLength" : 1152,
            "byteOffset" : 2432
        },
        {
            "buffer" : 0,
            "byteLength" : 1152,
            "byteOffset" : 3584
        },
        {
            "buffer" : 0,
            "byteLength" : 768,
            "byteOffset" : 4736
        },
        {
            "buffer" : 0,
            "byteLength" : 564,
            "byteOffset" : 5504
        },
        {
            "buffer" : 0,
            "byteLength" : 1920,
            "byteOffset" : 6068
        },
        {
            "buffer" : 0,
            "byteLength" : 1920,
            "byteOffset" : 7988
        },
        {
            "buffer" : 0,
            "byteLength" : 1280,
            "byteOffset" : 9908
        },
        {
            "buffer" : 0,
            "byteLength" : 948,
            "byteOffset" : 11188
        }
    ],
    "buffers" : [
        {
            "byteLength" : 12136,
            "uri" : "island_collider.bin"
        }
    ]
}
